<svg width="43" height="51" viewBox="0 0 43 51" fill="none" xmlns="http://www.w3.org/2000/svg">
<path d="M0.719568 11.7117C0.490948 11.8666 0.431168 12.1775 0.586046 12.4061L5.24302 19.2804C5.31987 19.3939 5.43992 19.4708 5.57509 19.4932C5.71027 19.5157 5.84873 19.4817 5.95811 19.3991L11.938 14.8875L35.5818 49.7889C35.7301 50.0078 36.0233 50.0734 36.2508 49.9385L42.0795 46.4828C42.1981 46.4125 42.2823 46.2964 42.3124 46.1618C42.3425 46.0273 42.3158 45.8864 42.2384 45.7723L18.58 10.8493L25.3127 6.28825C25.5413 6.13337 25.6011 5.82248 25.4462 5.59386L22.7445 1.60579C22.5994 1.39161 22.3149 1.32348 22.0885 1.4487C20.8377 2.14057 19.9326 2.39563 19.078 2.38199C18.2103 2.36814 17.3345 2.0779 16.1276 1.55381C15.9707 1.48564 15.7897 1.5025 15.648 1.59848L0.719568 11.7117Z" fill="#F50C2B" stroke="#F50C2B" stroke-linejoin="round"/>
</svg>
