<svg width="65" height="77" viewBox="0 0 65 77" fill="none" xmlns="http://www.w3.org/2000/svg">
<path d="M19.7446 7.84549C19.6776 7.63948 19.4856 7.5 19.269 7.5C19.0524 7.5 18.8604 7.63948 18.7935 7.84549L17.2738 12.5228H12.3558C12.1392 12.5228 11.9472 12.6623 11.8802 12.8683C11.8133 13.0743 11.8866 13.3 12.0619 13.4273L16.0406 16.318L14.5209 20.9953C14.4539 21.2013 14.5273 21.427 14.7025 21.5543C14.8778 21.6816 15.115 21.6816 15.2903 21.5543L19.269 18.6636L23.2478 21.5543C23.423 21.6816 23.6603 21.6816 23.8355 21.5543C24.0108 21.427 24.0841 21.2013 24.0172 20.9953L22.4974 16.318L26.4762 13.4273C26.6514 13.3 26.7247 13.0743 26.6578 12.8683C26.5909 12.6623 26.3989 12.5228 26.1823 12.5228H21.2643L19.7446 7.84549Z" fill="#F50C2B" stroke="#F50C2B" stroke-linejoin="round"/>
<path d="M42.2643 6.53688C42.0426 6.39667 41.7503 6.45152 41.5946 6.66255C41.4389 6.87357 41.4727 7.16905 41.6721 7.33947C52.1807 16.3235 53.9651 29.7987 49.3845 38.9846C47.0979 43.5699 43.231 47.0808 38.0671 48.46C32.9005 49.8398 26.3695 49.1026 18.734 45.0582C18.5605 44.9662 18.3492 44.9844 18.1939 45.1047L1.99579 57.6477C1.78842 57.8083 1.74037 58.1018 1.88571 58.3201L6.82072 65.7331C6.89711 65.8478 7.01748 65.9259 7.15338 65.949C7.28929 65.972 7.42868 65.9379 7.53861 65.8547L21.9662 54.9387C35.515 58.8626 49.5432 52.5517 55.7515 42.3784C58.8825 37.2478 60.0295 31.1246 58.1088 24.846C56.1899 18.5735 51.229 12.2082 42.2643 6.53688Z" fill="#F50C2B" stroke="#F50C2B" stroke-linejoin="round"/>
</svg>
